<?xml version="1.0" encoding="iso-8859-1"?>
<!-- Uploaded to: SVG Repo, www.svgrepo.com, Generator: SVG Repo Mixer Tools -->
<svg version="1.1" id="Layer_1" xmlns="http://www.w3.org/2000/svg" xmlns:xlink="http://www.w3.org/1999/xlink" 
	 viewBox="0 0 512 512" xml:space="preserve">
<polygon style="fill:#FD7052;" points="349.733,0 349.733,497.664 301.866,463.088 202.924,391.617 103.983,463.088 56.116,497.664 
	56.116,0 "/>
<polygon style="fill:#FF4F18;" points="349.733,0 349.733,497.664 301.866,463.088 202.924,391.617 202.924,0 "/>
<g>
	<rect x="113.977" y="61.356" style="fill:#FFFFFF;" width="179.022" height="31.347"/>
	<rect x="113.977" y="120.696" style="fill:#FFFFFF;" width="179.022" height="31.347"/>
</g>
<g>
	<rect x="202.93" y="61.356" style="fill:#D9D8DB;" width="90.07" height="31.347"/>
	<rect x="202.93" y="120.696" style="fill:#D9D8DB;" width="90.07" height="31.347"/>
</g>
<path style="fill:#57555C;" d="M455.884,406.601c0,58.211-47.188,105.399-105.399,105.399c-0.251,0-0.502,0-0.752-0.01
	c-28.473-0.188-54.251-11.682-73.101-30.208c-16.927-16.635-28.265-38.933-30.929-63.843c-0.397-3.72-0.616-7.502-0.616-11.337
	c0-31.587,13.908-59.925,35.913-79.245c0.24-0.209,0.481-0.418,0.721-0.616c8.579-7.398,18.369-13.427,29.017-17.774
	c12.048-4.901,25.203-7.659,38.996-7.743c0.251-0.01,0.502-0.01,0.752-0.01C408.696,301.213,455.884,348.39,455.884,406.601z"/>
<path style="fill:#3C3A41;" d="M455.884,406.601c0,58.211-47.188,105.399-105.399,105.399c-0.251,0-0.502,0-0.752-0.01V301.223
	c0.251-0.01,0.502-0.01,0.752-0.01C408.696,301.213,455.884,348.39,455.884,406.601z"/>
<polygon style="fill:#FFFFFF;" points="377.716,418.988 384.299,457.367 349.828,439.249 349.734,439.301 315.367,457.367 
	321.95,418.988 294.072,391.811 332.597,386.21 349.734,351.488 349.828,351.3 367.068,386.21 405.594,391.811 "/>
<polygon style="fill:#D9D8DB;" points="377.716,418.988 384.299,457.367 349.828,439.249 349.734,439.301 349.734,351.488 
	349.828,351.3 367.068,386.21 405.594,391.811 "/>
</svg>